<svg width="35" height="35" viewBox="0 0 35 35" fill="none" xmlns="http://www.w3.org/2000/svg">
<g clip-path="url(#clip0_98_2)">
<path d="M18.4 33.575C17.8208 33.7985 17.1792 33.7985 16.6 33.575V33.575C12.0767 31.8014 8.19282 28.706 5.45471 24.6925C2.7166 20.679 1.25134 15.9336 1.25 11.075V3.75C1.25 3.08696 1.51339 2.45107 1.98223 1.98223C2.45107 1.51339 3.08696 1.25 3.75 1.25H31.25C31.913 1.25 32.5489 1.51339 33.0178 1.98223C33.4866 2.45107 33.75 3.08696 33.75 3.75V11.05C33.7537 15.9128 32.2908 20.6637 29.5523 24.6822C26.8139 28.7006 22.9272 31.7998 18.4 33.575V33.575Z" stroke="white" stroke-width="2" stroke-linecap="round" stroke-linejoin="round"/>
<path d="M21.25 13.75H13.75C12.3693 13.75 11.25 14.8693 11.25 16.25V21.25C11.25 22.6307 12.3693 23.75 13.75 23.75H21.25C22.6307 23.75 23.75 22.6307 23.75 21.25V16.25C23.75 14.8693 22.6307 13.75 21.25 13.75Z" stroke="white" stroke-width="2" stroke-linecap="round" stroke-linejoin="round"/>
<path d="M21.25 13.75V11.25C21.25 10.7575 21.153 10.2699 20.9645 9.81494C20.7761 9.35997 20.4999 8.94657 20.1517 8.59835C19.8034 8.25013 19.39 7.97391 18.9351 7.78545C18.4801 7.597 17.9925 7.5 17.5 7.5C17.0075 7.5 16.5199 7.597 16.0649 7.78545C15.61 7.97391 15.1966 8.25013 14.8483 8.59835C14.5001 8.94657 14.2239 9.35997 14.0355 9.81494C13.847 10.2699 13.75 10.7575 13.75 11.25V13.75" stroke="white" stroke-width="2" stroke-linecap="round" stroke-linejoin="round"/>
</g>
<defs>
<clipPath id="clip0_98_2">
<rect width="35" height="35" fill="white"/>
</clipPath>
</defs>
</svg>
